<svg aria-hidden="true" style="position: absolute; width: 0; height: 0; overflow: hidden;" version="1.1"
    xmlns="http://www.w3.org/2000/svg" xmlns:xlink="http://www.w3.org/1999/xlink">
    <defs>
        <symbol id="icon-travel-trucks" viewBox="0 0 290 32">
            <path fill="#475467" style="fill: var(--color1, #475467)"
                d="M288.838 15.333h-7.697c-0.041-0.475-0.207-0.884-0.501-1.227-0.292-0.343-0.672-0.606-1.135-0.788-0.457-0.192-0.96-0.288-1.517-0.288-0.717 0-1.333 0.131-1.847 0.394-0.516 0.263-0.768 0.636-0.757 1.121-0.011 0.343 0.137 0.662 0.439 0.955 0.311 0.293 0.913 0.52 1.803 0.682l4.727 0.849c2.383 0.434 4.156 1.167 5.318 2.197 1.171 1.020 1.762 2.389 1.773 4.106-0.011 1.657-0.506 3.096-1.485 4.318-0.971 1.212-2.3 2.151-3.985 2.818-1.677 0.657-3.593 0.985-5.743 0.985-3.556 0-6.338-0.727-8.348-2.182-2.001-1.454-3.117-3.374-3.349-5.757h8.303c0.111 0.737 0.476 1.308 1.090 1.712 0.627 0.394 1.414 0.591 2.364 0.591 0.768 0 1.399-0.131 1.894-0.394 0.506-0.263 0.764-0.636 0.772-1.121-0.009-0.444-0.233-0.798-0.666-1.061-0.425-0.263-1.092-0.475-2.001-0.636l-4.119-0.727c-2.374-0.414-4.151-1.202-5.333-2.364s-1.769-2.657-1.758-4.485c-0.011-1.616 0.414-2.985 1.271-4.106 0.868-1.131 2.106-1.99 3.712-2.576 1.617-0.596 3.531-0.894 5.743-0.894 3.364 0 6.016 0.697 7.955 2.091 1.95 1.394 2.974 3.323 3.076 5.788z">
            </path>
            <path fill="#475467" style="fill: var(--color1, #475467)"
                d="M248.352 25.515l0.060-9.939h1.092l5.636-7.818h9.393l-9.455 12.182h-2.364l-4.363 5.576zM240.836 31.030v-31.030h8.365v31.030h-8.365zM255.2 31.030l-5.333-9.212 5.455-5.939 9.455 15.152h-9.577z">
            </path>
            <path fill="#475467" style="fill: var(--color1, #475467)"
                d="M225.321 31.454c-2.526 0-4.687-0.5-6.485-1.5-1.798-1.010-3.177-2.414-4.137-4.212-0.96-1.808-1.439-3.904-1.439-6.288s0.479-4.475 1.439-6.273c0.96-1.808 2.338-3.212 4.137-4.212 1.798-1.010 3.959-1.515 6.485-1.515 2.283 0 4.258 0.414 5.924 1.242 1.677 0.818 2.974 1.98 3.893 3.485 0.919 1.495 1.385 3.253 1.395 5.273h-7.759c-0.111-1.222-0.465-2.152-1.060-2.788-0.587-0.646-1.344-0.97-2.272-0.97-0.727 0-1.365 0.212-1.909 0.636-0.546 0.414-0.971 1.045-1.274 1.894-0.303 0.838-0.454 1.894-0.454 3.167s0.151 2.333 0.454 3.182c0.303 0.838 0.727 1.47 1.274 1.894 0.544 0.414 1.182 0.621 1.909 0.621 0.614 0 1.161-0.141 1.636-0.424 0.474-0.293 0.858-0.717 1.15-1.273 0.305-0.566 0.486-1.253 0.546-2.061h7.759c-0.032 2.050-0.501 3.838-1.41 5.364-0.909 1.515-2.197 2.687-3.863 3.515-1.658 0.828-3.637 1.242-5.939 1.242z">
            </path>
            <path fill="#475467" style="fill: var(--color1, #475467)"
                d="M200.637 20.848v-13.091h8.364v23.273h-7.939v-4.424h-0.243c-0.505 1.485-1.389 2.646-2.651 3.485-1.263 0.828-2.763 1.242-4.5 1.242-1.626 0-3.051-0.374-4.273-1.121-1.212-0.748-2.157-1.778-2.833-3.091-0.667-1.313-1.005-2.818-1.015-4.515v-14.849h8.364v13.091c0.010 1.152 0.303 2.056 0.879 2.712 0.586 0.657 1.404 0.985 2.455 0.985 0.697 0 1.298-0.147 1.803-0.439 0.515-0.303 0.909-0.727 1.182-1.273 0.283-0.556 0.419-1.217 0.409-1.985z">
            </path>
            <path fill="#475467" style="fill: var(--color1, #475467)"
                d="M166.193 31.030v-23.273h8.121v4.424h0.242c0.424-1.636 1.096-2.833 2.015-3.591 0.929-0.758 2.015-1.136 3.258-1.136 0.364 0 0.722 0.030 1.076 0.091 0.364 0.051 0.712 0.126 1.046 0.227v7.136c-0.414-0.141-0.924-0.247-1.53-0.318s-1.126-0.106-1.561-0.106c-0.818 0-1.556 0.187-2.212 0.561-0.647 0.364-1.157 0.879-1.53 1.545-0.374 0.657-0.561 1.429-0.561 2.318v12.121h-8.364z">
            </path>
            <path fill="#475467" style="fill: var(--color1, #475467)"
                d="M137.495 6.788v-6.788h26.97v6.788h-9.333v24.243h-8.303v-24.243h-9.333z"></path>
            <path fill="#101828" style="fill: var(--color2, #101828)" d="M133.35 0v31.030h-8.364v-31.030h8.364z"></path>
            <path fill="#101828" style="fill: var(--color2, #101828)"
                d="M109.326 31.454c-2.485 0-4.626-0.475-6.424-1.424-1.788-0.96-3.167-2.333-4.136-4.121-0.96-1.798-1.439-3.949-1.439-6.454 0-2.404 0.485-4.505 1.454-6.303s2.338-3.197 4.106-4.197 3.854-1.5 6.257-1.5c1.758 0 3.348 0.273 4.773 0.818s2.641 1.338 3.651 2.379c1.010 1.030 1.788 2.283 2.333 3.758s0.818 3.136 0.818 4.985v1.939h-20.788v-4.606h13.091c-0.010-0.667-0.182-1.253-0.515-1.758-0.323-0.515-0.763-0.914-1.318-1.197-0.546-0.293-1.167-0.439-1.864-0.439-0.677 0-1.298 0.146-1.864 0.439-0.566 0.283-1.020 0.677-1.364 1.182-0.333 0.505-0.51 1.096-0.53 1.773v4.97c0 0.748 0.157 1.414 0.47 2s0.763 1.046 1.348 1.379c0.586 0.333 1.293 0.5 2.121 0.5 0.576 0 1.101-0.081 1.576-0.243 0.485-0.162 0.899-0.394 1.242-0.697 0.343-0.313 0.596-0.687 0.758-1.121h7.636c-0.263 1.616-0.884 3.020-1.864 4.212-0.98 1.182-2.278 2.101-3.894 2.758-1.606 0.646-3.485 0.97-5.636 0.97z">
            </path>
            <path fill="#101828" style="fill: var(--color2, #101828)"
                d="M95.651 7.758l-7.818 23.273h-9.697l-7.818-23.273h8.788l3.757 15.394h0.243l3.757-15.394h8.788z">
            </path>
            <path fill="#101828" style="fill: var(--color2, #101828)"
                d="M53.453 31.394c-1.485 0-2.798-0.243-3.939-0.727-1.131-0.495-2.020-1.242-2.667-2.242s-0.97-2.273-0.97-3.818c0-1.273 0.217-2.359 0.652-3.258 0.434-0.909 1.040-1.651 1.818-2.227s1.682-1.015 2.712-1.318c1.040-0.303 2.161-0.5 3.364-0.591 1.303-0.101 2.348-0.222 3.136-0.364 0.798-0.151 1.374-0.359 1.727-0.621 0.353-0.273 0.53-0.631 0.53-1.076v-0.061c0-0.606-0.232-1.071-0.697-1.394s-1.061-0.485-1.788-0.485c-0.798 0-1.449 0.177-1.955 0.53-0.495 0.343-0.793 0.874-0.894 1.591h-7.697c0.101-1.414 0.551-2.717 1.348-3.909 0.808-1.202 1.985-2.162 3.53-2.879 1.545-0.727 3.475-1.091 5.788-1.091 1.667 0 3.162 0.197 4.485 0.591 1.323 0.384 2.449 0.924 3.379 1.621 0.929 0.687 1.636 1.495 2.121 2.424 0.495 0.919 0.742 1.919 0.742 3v15.939h-7.818v-3.273h-0.182c-0.465 0.869-1.030 1.571-1.697 2.106-0.657 0.535-1.409 0.924-2.258 1.167-0.838 0.242-1.763 0.364-2.773 0.364zM56.18 26.121c0.636 0 1.232-0.131 1.788-0.394 0.566-0.263 1.025-0.642 1.379-1.136s0.53-1.096 0.53-1.803v-1.939c-0.222 0.091-0.46 0.177-0.712 0.258-0.243 0.081-0.505 0.157-0.788 0.227-0.273 0.071-0.566 0.136-0.879 0.197-0.303 0.061-0.621 0.116-0.954 0.167-0.646 0.101-1.177 0.268-1.591 0.5-0.404 0.222-0.707 0.5-0.909 0.833-0.192 0.323-0.288 0.687-0.288 1.091 0 0.646 0.227 1.141 0.682 1.485s1.035 0.515 1.742 0.515z">
            </path>
            <path fill="#101828" style="fill: var(--color2, #101828)"
                d="M28.698 31.030v-23.273h8.121v4.424h0.243c0.424-1.636 1.096-2.833 2.015-3.591 0.929-0.758 2.015-1.136 3.258-1.136 0.364 0 0.722 0.030 1.076 0.091 0.364 0.051 0.712 0.126 1.046 0.227v7.136c-0.414-0.141-0.924-0.247-1.53-0.318s-1.126-0.106-1.561-0.106c-0.818 0-1.556 0.187-2.212 0.561-0.647 0.364-1.157 0.879-1.53 1.545-0.374 0.657-0.56 1.429-0.56 2.318v12.121h-8.364z">
            </path>
            <path fill="#101828" style="fill: var(--color2, #101828)"
                d="M0 6.788v-6.788h26.97v6.788h-9.333v24.243h-8.303v-24.243h-9.333z"></path>
        </symbol>
        <symbol id="icon-tv" viewBox="0 0 41 32">
            <path
                d="M0 5.12c0 0 0-5.12 5.12-5.12h30.72c0 0 5.12 0 5.12 5.12v15.36c0 0 0 5.12-5.12 5.12h-10.24c0 1.707 0.213 2.987 0.64 3.84h1.92c0.339 0 0.665 0.135 0.905 0.375s0.375 0.566 0.375 0.905c0 0.339-0.135 0.665-0.375 0.905s-0.566 0.375-0.905 0.375h-15.36c-0.339 0-0.665-0.135-0.905-0.375s-0.375-0.566-0.375-0.905c0-0.339 0.135-0.665 0.375-0.905s0.566-0.375 0.905-0.375h1.92c0.427-0.853 0.64-2.133 0.64-3.84h-10.24c0 0-5.12 0-5.12-5.12v-15.36zM3.579 2.931c-0.281 0.196-0.505 0.463-0.65 0.773-0.216 0.452-0.341 0.941-0.369 1.441v15.334c0 0.832 0.2 1.285 0.371 1.541 0.179 0.266 0.437 0.483 0.773 0.65 0.432 0.207 0.899 0.331 1.377 0.366l0.064 0.003h30.694c0.832 0 1.285-0.2 1.541-0.371 0.281-0.196 0.505-0.463 0.65-0.773 0.207-0.432 0.331-0.899 0.366-1.377l0.003-0.064v-15.334c0-0.832-0.2-1.285-0.371-1.541-0.196-0.281-0.463-0.505-0.773-0.65-0.452-0.216-0.941-0.341-1.441-0.369h-30.694c-0.832 0-1.285 0.2-1.541 0.371z">
            </path>
        </symbol>
        <symbol id="icon-alcove" viewBox="0 0 32 32">
            <path
                d="M8 4v4h-4v-4h4zM10 28v-4c0-0.53-0.211-1.039-0.586-1.414s-0.884-0.586-1.414-0.586h-4c-0.53 0-1.039 0.211-1.414 0.586s-0.586 0.884-0.586 1.414v4c0 0.53 0.211 1.039 0.586 1.414s0.884 0.586 1.414 0.586h4c0.53 0 1.039-0.211 1.414-0.586s0.586-0.884 0.586-1.414zM10 18v-4c0-0.53-0.211-1.039-0.586-1.414s-0.884-0.586-1.414-0.586h-4c-0.53 0-1.039 0.211-1.414 0.586s-0.586 0.884-0.586 1.414v4c0 0.53 0.211 1.039 0.586 1.414s0.884 0.586 1.414 0.586h4c0.53 0 1.039-0.211 1.414-0.586s0.586-0.884 0.586-1.414zM10 8v-4c0-0.53-0.211-1.039-0.586-1.414s-0.884-0.586-1.414-0.586h-4c-0.53 0-1.039 0.211-1.414 0.586s-0.586 0.884-0.586 1.414v4c0 0.53 0.211 1.039 0.586 1.414s0.884 0.586 1.414 0.586h4c0.53 0 1.039-0.211 1.414-0.586s0.586-0.884 0.586-1.414zM20 28v-4c0-0.53-0.211-1.039-0.586-1.414s-0.884-0.586-1.414-0.586h-4c-0.53 0-1.039 0.211-1.414 0.586s-0.586 0.884-0.586 1.414v4c0 0.53 0.211 1.039 0.586 1.414s0.884 0.586 1.414 0.586h4c0.53 0 1.039-0.211 1.414-0.586s0.586-0.884 0.586-1.414zM20 18v-4c0-0.53-0.211-1.039-0.586-1.414s-0.884-0.586-1.414-0.586h-4c-0.53 0-1.039 0.211-1.414 0.586s-0.586 0.884-0.586 1.414v4c0 0.53 0.211 1.039 0.586 1.414s0.884 0.586 1.414 0.586h4c0.53 0 1.039-0.211 1.414-0.586s0.586-0.884 0.586-1.414zM20 8v-4c0-0.53-0.211-1.039-0.586-1.414s-0.884-0.586-1.414-0.586h-4c-0.53 0-1.039 0.211-1.414 0.586s-0.586 0.884-0.586 1.414v4c0 0.53 0.211 1.039 0.586 1.414s0.884 0.586 1.414 0.586h4c0.53 0 1.039-0.211 1.414-0.586s0.586-0.884 0.586-1.414zM18 4v4h-4v-4h4zM28 4v4h-4v-4h4zM8 14v4h-4v-4h4zM18 14v4h-4v-4h4zM28 14h-4v4h4v-4zM8 24v4h-4v-4h4zM18 24v4h-4v-4h4zM28 24v4h-4v-4h4zM24 2c-0.53 0-1.039 0.211-1.414 0.586s-0.586 0.884-0.586 1.414v4c0 0.53 0.211 1.039 0.586 1.414s0.884 0.586 1.414 0.586h4c0.53 0 1.039-0.211 1.414-0.586s0.586-0.884 0.586-1.414v-4c0-0.53-0.211-1.039-0.586-1.414s-0.884-0.586-1.414-0.586h-4zM22 14c0-0.53 0.211-1.039 0.586-1.414s0.884-0.586 1.414-0.586h4c0.53 0 1.039 0.211 1.414 0.586s0.586 0.884 0.586 1.414v4c0 0.53-0.211 1.039-0.586 1.414s-0.884 0.586-1.414 0.586h-4c-0.53 0-1.039-0.211-1.414-0.586s-0.586-0.884-0.586-1.414v-4zM24 22c-0.53 0-1.039 0.211-1.414 0.586s-0.586 0.884-0.586 1.414v4c0 0.53 0.211 1.039 0.586 1.414s0.884 0.586 1.414 0.586h4c0.53 0 1.039-0.211 1.414-0.586s0.586-0.884 0.586-1.414v-4c0-0.53-0.211-1.039-0.586-1.414s-0.884-0.586-1.414-0.586h-4z">
            </path>
        </symbol>
        <symbol id="icon-fully-integrated" viewBox="0 0 32 32">
            <path
                d="M2 5c0-0.796 0.316-1.559 0.879-2.121s1.326-0.879 2.121-0.879h6c0.796 0 1.559 0.316 2.121 0.879s0.879 1.326 0.879 2.121v6c0 0.796-0.316 1.559-0.879 2.121s-1.326 0.879-2.121 0.879h-6c-0.796 0-1.559-0.316-2.121-0.879s-0.879-1.326-0.879-2.121v-6zM5 4c-0.265 0-0.52 0.105-0.707 0.293s-0.293 0.442-0.293 0.707v6c0 0.265 0.105 0.52 0.293 0.707s0.442 0.293 0.707 0.293h6c0.265 0 0.52-0.105 0.707-0.293s0.293-0.442 0.293-0.707v-6c0-0.265-0.105-0.52-0.293-0.707s-0.442-0.293-0.707-0.293h-6zM18 5c0-0.796 0.316-1.559 0.879-2.121s1.326-0.879 2.121-0.879h6c0.796 0 1.559 0.316 2.121 0.879s0.879 1.326 0.879 2.121v6c0 0.796-0.316 1.559-0.879 2.121s-1.326 0.879-2.121 0.879h-6c-0.796 0-1.559-0.316-2.121-0.879s-0.879-1.326-0.879-2.121v-6zM21 4c-0.265 0-0.52 0.105-0.707 0.293s-0.293 0.442-0.293 0.707v6c0 0.265 0.105 0.52 0.293 0.707s0.442 0.293 0.707 0.293h6c0.265 0 0.52-0.105 0.707-0.293s0.293-0.442 0.293-0.707v-6c0-0.265-0.105-0.52-0.293-0.707s-0.442-0.293-0.707-0.293h-6zM2 21c0-0.796 0.316-1.559 0.879-2.121s1.326-0.879 2.121-0.879h6c0.796 0 1.559 0.316 2.121 0.879s0.879 1.326 0.879 2.121v6c0 0.796-0.316 1.559-0.879 2.121s-1.326 0.879-2.121 0.879h-6c-0.796 0-1.559-0.316-2.121-0.879s-0.879-1.326-0.879-2.121v-6zM5 20c-0.265 0-0.52 0.105-0.707 0.293s-0.293 0.442-0.293 0.707v6c0 0.265 0.105 0.52 0.293 0.707s0.442 0.293 0.707 0.293h6c0.265 0 0.52-0.105 0.707-0.293s0.293-0.442 0.293-0.707v-6c0-0.265-0.105-0.52-0.293-0.707s-0.442-0.293-0.707-0.293h-6zM18 21c0-0.796 0.316-1.559 0.879-2.121s1.326-0.879 2.121-0.879h6c0.796 0 1.559 0.316 2.121 0.879s0.879 1.326 0.879 2.121v6c0 0.796-0.316 1.559-0.879 2.121s-1.326 0.879-2.121 0.879h-6c-0.796 0-1.559-0.316-2.121-0.879s-0.879-1.326-0.879-2.121v-6zM21 20c-0.265 0-0.52 0.105-0.707 0.293s-0.293 0.442-0.293 0.707v6c0 0.265 0.105 0.52 0.293 0.707s0.442 0.293 0.707 0.293h6c0.265 0 0.52-0.105 0.707-0.293s0.293-0.442 0.293-0.707v-6c0-0.265-0.105-0.52-0.293-0.707s-0.442-0.293-0.707-0.293h-6z">
            </path>
        </symbol>
        <symbol id="icon-van" viewBox="0 0 32 32">
            <path
                d="M12 2h-10v28h10v-28zM30 2h-10v10h10v-10zM30 20v10h-10v-10h10zM0 2c0-0.53 0.211-1.039 0.586-1.414s0.884-0.586 1.414-0.586h10c0.53 0 1.039 0.211 1.414 0.586s0.586 0.884 0.586 1.414v28c0 0.53-0.211 1.039-0.586 1.414s-0.884 0.586-1.414 0.586h-10c-0.53 0-1.039-0.211-1.414-0.586s-0.586-0.884-0.586-1.414v-28zM18 2c0-0.53 0.211-1.039 0.586-1.414s0.884-0.586 1.414-0.586h10c0.53 0 1.039 0.211 1.414 0.586s0.586 0.884 0.586 1.414v10c0 0.53-0.211 1.039-0.586 1.414s-0.884 0.586-1.414 0.586h-10c-0.53 0-1.039-0.211-1.414-0.586s-0.586-0.884-0.586-1.414v-10zM20 18c-0.53 0-1.039 0.211-1.414 0.586s-0.586 0.884-0.586 1.414v10c0 0.53 0.211 1.039 0.586 1.414s0.884 0.586 1.414 0.586h10c0.53 0 1.039-0.211 1.414-0.586s0.586-0.884 0.586-1.414v-10c0-0.53-0.211-1.039-0.586-1.414s-0.884-0.586-1.414-0.586h-10z">
            </path>
        </symbol>
        <symbol id="icon-water" viewBox="0 0 32 32">
            <path stroke-linejoin="miter" stroke-linecap="butt" stroke-miterlimit="10" stroke-width="2"
                d="M25 20c0 5.523-3.477 9-9 9s-9-3.477-9-9c0-5.927 6.452-13.928 8.431-16.242 0.070-0.082 0.158-0.148 0.256-0.194s0.205-0.069 0.314-0.069c0.108 0 0.215 0.023 0.314 0.069s0.186 0.111 0.256 0.194c1.978 2.314 8.43 10.316 8.43 16.242z">
            </path>
            <path stroke-linejoin="round" stroke-linecap="round" stroke-miterlimit="4" stroke-width="2"
                d="M21.5 20.5c0 1.193-0.474 2.338-1.318 3.182s-1.988 1.318-3.182 1.318"></path>
        </symbol>
        <symbol id="icon-gas" viewBox="0 0 32 32">
            <path stroke-linejoin="round" stroke-linecap="round" stroke-miterlimit="4" stroke-width="2.4"
                d="M8 25.333h5.333M24 25.345v-0.012M2.667 8c0-4.413 0.92-5.333 5.333-5.333h16c4.413 0 5.333 0.92 5.333 5.333v16c0 4.413-0.92 5.333-5.333 5.333h-16c-4.413 0-5.333-0.92-5.333-5.333v-16z">
            </path>
            <path stroke-linejoin="round" stroke-linecap="round" stroke-miterlimit="4" stroke-width="2.4"
                d="M16 18.667c2.945 0 5.333-2.388 5.333-5.333s-2.388-5.333-5.333-5.333c-2.946 0-5.333 2.388-5.333 5.333s2.388 5.333 5.333 5.333z">
            </path>
            <path stroke-linejoin="round" stroke-linecap="round" stroke-miterlimit="4" stroke-width="2.4"
                d="M20.667 13.333h2M16 18v2M11.333 13.333h-2M16 8.667v-2"></path>
        </symbol>
        <symbol id="icon-microwave" viewBox="0 0 32 32">
            <path stroke-linejoin="round" stroke-linecap="round" stroke-miterlimit="4" stroke-width="2"
                d="M26.667 5.333h-21.333c-1.473 0-2.667 1.194-2.667 2.667v14.667c0 1.473 1.194 2.667 2.667 2.667h21.333c1.473 0 2.667-1.194 2.667-2.667v-14.667c0-1.473-1.194-2.667-2.667-2.667z">
            </path>
            <path stroke-linejoin="round" stroke-linecap="round" stroke-miterlimit="4" stroke-width="2"
                d="M17.333 10.667h-8c-0.736 0-1.333 0.597-1.333 1.333v6.667c0 0.736 0.597 1.333 1.333 1.333h8c0.736 0 1.333-0.597 1.333-1.333v-6.667c0-0.736-0.597-1.333-1.333-1.333z">
            </path>
            <path stroke-linejoin="round" stroke-linecap="round" stroke-miterlimit="4" stroke-width="2"
                d="M24 10.667v9.333M8 25.333v2.667M24 25.333v2.667"></path>
        </symbol>
        <symbol id="icon-refrigerator" viewBox="0 0 32 32">
            <path
                d="M23.667 9.333c0-0.265-0.105-0.52-0.293-0.707s-0.442-0.293-0.707-0.293c-0.265 0-0.52 0.105-0.707 0.293s-0.293 0.442-0.293 0.707v2.667c0 0.265 0.105 0.52 0.293 0.707s0.442 0.293 0.707 0.293c0.265 0 0.52-0.105 0.707-0.293s0.293-0.442 0.293-0.707v-2.667zM23.667 18.667c0-0.265-0.105-0.52-0.293-0.707s-0.442-0.293-0.707-0.293c-0.265 0-0.52 0.105-0.707 0.293s-0.293 0.442-0.293 0.707v2.667c0 0.265 0.105 0.52 0.293 0.707s0.442 0.293 0.707 0.293c0.265 0 0.52-0.105 0.707-0.293s0.293-0.442 0.293-0.707v-2.667z">
            </path>
            <path
                d="M16.075 1.667h-0.149c-2.451 0-4.392 0-5.911 0.204-1.563 0.211-2.828 0.653-3.827 1.651-0.997 0.999-1.44 2.264-1.651 3.827-0.204 1.52-0.204 3.46-0.204 5.911v4.149c0 2.451 0 4.392 0.204 5.911 0.211 1.563 0.653 2.828 1.651 3.827 0.613 0.612 1.325 1.015 2.145 1.284v0.904c0 0.552 0.448 1 1 1h1.333c0.265 0 0.52-0.105 0.707-0.293s0.293-0.442 0.293-0.707v-0.395c1.209 0.061 2.62 0.061 4.259 0.061h0.149c1.64 0 3.049 0 4.259-0.061v0.395c0 0.552 0.448 1 1 1h1.333c0.265 0 0.52-0.105 0.707-0.293s0.293-0.442 0.293-0.707v-0.904c0.82-0.269 1.533-0.672 2.145-1.284 0.997-0.999 1.44-2.264 1.651-3.827 0.204-1.52 0.204-3.46 0.204-5.911v-4.148c0-2.451 0-4.392-0.204-5.911-0.211-1.563-0.653-2.828-1.651-3.827-0.999-0.997-2.264-1.44-3.827-1.651-1.52-0.204-3.46-0.204-5.911-0.204zM7.603 4.936c0.564-0.564 1.337-0.903 2.679-1.083 1.371-0.184 3.176-0.187 5.719-0.187s4.349 0.003 5.72 0.187c1.34 0.18 2.113 0.519 2.677 1.083s0.903 1.337 1.083 2.679c0.184 1.371 0.187 3.176 0.187 5.719v1h-19.333v-1c0-2.543 0.003-4.348 0.187-5.72 0.18-1.34 0.519-2.113 1.083-2.677zM6.333 16.333h19.333v1c0 2.543-0.003 4.349-0.187 5.72-0.18 1.34-0.519 2.113-1.083 2.677s-1.337 0.903-2.679 1.083c-1.371 0.184-3.176 0.187-5.719 0.187s-4.348-0.003-5.72-0.187c-1.34-0.18-2.113-0.519-2.677-1.083s-0.903-1.337-1.083-2.679c-0.184-1.369-0.187-3.176-0.187-5.719v-1z">
            </path>
        </symbol>
        <symbol id="icon-bathroom" viewBox="0 0 38 32">
            <path
                d="M8.235 30c0 0.349-0.104 0.69-0.297 0.98s-0.47 0.517-0.792 0.65c-0.322 0.134-0.677 0.169-1.020 0.101s-0.657-0.236-0.904-0.483c-0.247-0.247-0.415-0.561-0.483-0.904s-0.033-0.697 0.1-1.020c0.134-0.322 0.36-0.598 0.65-0.792s0.631-0.297 0.98-0.297c0.468 0 0.917 0.186 1.248 0.517s0.517 0.78 0.517 1.248zM11.176 23.529c-0.349 0-0.69 0.104-0.98 0.297s-0.516 0.469-0.65 0.792c-0.134 0.322-0.168 0.677-0.1 1.020s0.236 0.657 0.483 0.904c0.247 0.247 0.561 0.415 0.904 0.483s0.697 0.033 1.020-0.101c0.322-0.133 0.598-0.36 0.792-0.65s0.297-0.631 0.297-0.98c0-0.468-0.186-0.917-0.517-1.248s-0.78-0.517-1.248-0.517zM1.765 23.529c-0.349 0-0.69 0.104-0.98 0.297s-0.516 0.469-0.65 0.792c-0.134 0.322-0.169 0.677-0.1 1.020s0.236 0.657 0.483 0.904c0.247 0.247 0.561 0.415 0.904 0.483s0.697 0.033 1.020-0.101c0.322-0.133 0.598-0.36 0.792-0.65s0.297-0.631 0.297-0.98c0-0.468-0.186-0.917-0.517-1.248s-0.78-0.517-1.248-0.517zM6.471 18.824c-0.349 0-0.69 0.104-0.98 0.297s-0.516 0.469-0.65 0.792c-0.134 0.322-0.168 0.677-0.1 1.020s0.236 0.657 0.483 0.904c0.247 0.247 0.561 0.415 0.904 0.483s0.697 0.033 1.020-0.101c0.322-0.133 0.598-0.36 0.792-0.65s0.297-0.631 0.297-0.98c0-0.468-0.186-0.917-0.517-1.248s-0.78-0.517-1.248-0.517zM36.471 1.176c0 0.312-0.124 0.611-0.345 0.832s-0.52 0.345-0.832 0.345h-4.219l-4.096 4.097-3.185 18.646c-0.072 0.426-0.259 0.824-0.542 1.151s-0.65 0.569-1.062 0.7c-0.411 0.132-0.851 0.147-1.271 0.046s-0.804-0.317-1.109-0.623l-14.412-14.412c-0.306-0.306-0.522-0.69-0.623-1.11s-0.086-0.861 0.046-1.272c0.132-0.412 0.375-0.779 0.702-1.062s0.726-0.47 1.153-0.541l18.638-3.187 4.441-4.441c0.109-0.109 0.239-0.196 0.382-0.255s0.296-0.089 0.45-0.089h4.706c0.312 0 0.611 0.124 0.832 0.345s0.345 0.52 0.345 0.832zM24.443 7.322l-17.384 2.972 14.412 14.412 2.972-17.384z">
            </path>
        </symbol>
        <symbol id="icon-radio" viewBox="0 0 34 32">
            <path
                d="M15.556 3.333c0-0.295 0.117-0.577 0.325-0.786s0.491-0.325 0.786-0.325h15.556c0.295 0 0.577 0.117 0.786 0.325s0.325 0.491 0.325 0.786v2.222c0 0.295-0.117 0.577-0.325 0.786s-0.491 0.325-0.786 0.325h-15.556c-0.295 0-0.577-0.117-0.786-0.325s-0.325-0.491-0.325-0.786v-2.222zM0 24.444c0-1.768 0.702-3.464 1.953-4.714s2.946-1.953 4.714-1.953 3.464 0.702 4.714 1.953c1.25 1.25 1.953 2.946 1.953 4.714s-0.702 3.464-1.953 4.714c-1.25 1.25-2.946 1.953-4.714 1.953s-3.464-0.702-4.714-1.953c-1.25-1.25-1.953-2.946-1.953-4.714zM15.556 21.111c0-0.295 0.117-0.577 0.325-0.786s0.491-0.326 0.786-0.326h15.556c0.295 0 0.577 0.117 0.786 0.326s0.325 0.491 0.325 0.786v2.222c0 0.295-0.117 0.577-0.325 0.786s-0.491 0.326-0.786 0.326h-15.556c-0.295 0-0.577-0.117-0.786-0.326s-0.325-0.491-0.325-0.786v-2.222zM15.556 10c0-0.295 0.117-0.577 0.325-0.786s0.491-0.325 0.786-0.325h11.111c0.295 0 0.577 0.117 0.786 0.325s0.326 0.491 0.326 0.786-0.117 0.577-0.326 0.786c-0.208 0.208-0.491 0.325-0.786 0.325h-11.111c-0.295 0-0.577-0.117-0.786-0.325s-0.325-0.491-0.325-0.786zM15.556 27.778c0-0.295 0.117-0.577 0.325-0.786s0.491-0.326 0.786-0.326h11.111c0.295 0 0.577 0.117 0.786 0.326s0.326 0.491 0.326 0.786-0.117 0.577-0.326 0.786c-0.208 0.209-0.491 0.326-0.786 0.326h-11.111c-0.295 0-0.577-0.117-0.786-0.326s-0.325-0.491-0.325-0.786zM6.667 0c-0.875 0-1.742 0.172-2.551 0.507s-1.544 0.826-2.163 1.445c-0.619 0.619-1.11 1.354-1.445 2.163s-0.507 1.676-0.507 2.551c0 0.875 0.172 1.742 0.507 2.551s0.826 1.544 1.445 2.163c0.619 0.619 1.354 1.11 2.163 1.445s1.676 0.507 2.551 0.507c1.768 0 3.464-0.702 4.714-1.953s1.953-2.946 1.953-4.714c0-1.768-0.702-3.464-1.953-4.714s-2.946-1.953-4.714-1.953zM6.667 10c-0.884 0-1.732-0.351-2.357-0.976s-0.976-1.473-0.976-2.357c0-0.884 0.351-1.732 0.976-2.357s1.473-0.976 2.357-0.976c0.884 0 1.732 0.351 2.357 0.976s0.976 1.473 0.976 2.357c0 0.884-0.351 1.732-0.976 2.357s-1.473 0.976-2.357 0.976z">
            </path>
        </symbol>
        <symbol id="icon-kitchen" viewBox="0 0 32 32">
            <path
                d="M1 11.999c-0.15 0-0.297 0.034-0.432 0.098s-0.254 0.159-0.347 0.276c-0.094 0.117-0.16 0.253-0.194 0.399s-0.035 0.297-0.003 0.443l3.304 14.868c0.247 1.11 0.865 2.104 1.752 2.816s1.991 1.1 3.128 1.1h11.584c1.138-0 2.241-0.388 3.128-1.1s1.505-1.705 1.752-2.816l0.262-1.18c1.53 0.286 3.111-0.033 4.41-0.891s2.213-2.186 2.551-3.706 0.071-3.11-0.742-4.437c-0.814-1.327-2.111-2.286-3.618-2.674l0.442-1.98c0.032-0.146 0.032-0.298-0.003-0.443s-0.1-0.282-0.194-0.399c-0.094-0.117-0.212-0.211-0.347-0.276s-0.283-0.098-0.432-0.098h-26zM26 24.999c-0.212 0-0.423-0.017-0.632-0.050l1.734-7.796c0.925 0.268 1.722 0.86 2.246 1.669s0.738 1.778 0.604 2.732c-0.134 0.954-0.607 1.827-1.333 2.46s-1.656 0.983-2.619 0.985zM5.28 27.649l-3.034-13.65h23.508l-3.034 13.65c-0.148 0.666-0.519 1.262-1.051 1.69s-1.195 0.66-1.877 0.66h-11.584c-0.683-0-1.345-0.233-1.877-0.66s-0.903-1.023-1.051-1.69z">
            </path>
            <path
                d="M8.8 1.599l-0.006 0.008-0.028 0.038c-0.146 0.2-0.282 0.407-0.408 0.62-0.107 0.171-0.202 0.349-0.282 0.534-0.052 0.12-0.068 0.184-0.074 0.206v0.008c0.023 0.177 0.085 0.346 0.182 0.496 0.15 0.266 0.356 0.544 0.616 0.89l0.020 0.024c0.236 0.316 0.52 0.694 0.74 1.086 0.224 0.4 0.44 0.91 0.44 1.49 0 0.376-0.13 0.736-0.238 0.988-0.116 0.268-0.251 0.527-0.404 0.776-0.157 0.262-0.326 0.517-0.506 0.764l-0.036 0.050-0.010 0.016-0.004 0.004c-0.159 0.212-0.396 0.353-0.658 0.391s-0.529-0.030-0.742-0.189c-0.212-0.159-0.353-0.396-0.391-0.658s0.030-0.529 0.189-0.742l0.006-0.008 0.028-0.038c0.146-0.2 0.282-0.407 0.408-0.62 0.107-0.171 0.202-0.349 0.282-0.534 0.052-0.12 0.068-0.184 0.074-0.206-0.021-0.179-0.083-0.352-0.18-0.504-0.186-0.31-0.392-0.608-0.618-0.89l-0.020-0.024c-0.27-0.345-0.517-0.708-0.74-1.086-0.272-0.451-0.424-0.964-0.44-1.49 0-0.376 0.13-0.736 0.238-0.988 0.118-0.276 0.268-0.548 0.404-0.776 0.159-0.261 0.328-0.516 0.506-0.764l0.050-0.070c0.159-0.212 0.396-0.353 0.658-0.391s0.529 0.030 0.742 0.189c0.212 0.159 0.353 0.396 0.391 0.658s-0.030 0.529-0.189 0.742zM14.8 1.599l-0.006 0.008-0.028 0.038c-0.146 0.2-0.282 0.407-0.408 0.62-0.107 0.171-0.202 0.349-0.282 0.534-0.052 0.12-0.068 0.184-0.074 0.206v0.008c0.023 0.177 0.085 0.346 0.182 0.496 0.15 0.266 0.356 0.544 0.616 0.89l0.020 0.024c0.236 0.316 0.52 0.694 0.74 1.086 0.224 0.4 0.44 0.91 0.44 1.49 0 0.376-0.13 0.736-0.238 0.988-0.116 0.268-0.251 0.527-0.404 0.776-0.157 0.262-0.326 0.517-0.506 0.764l-0.036 0.050-0.010 0.016-0.004 0.004c-0.159 0.212-0.396 0.353-0.658 0.391s-0.529-0.030-0.742-0.189c-0.212-0.159-0.353-0.396-0.391-0.658s0.030-0.529 0.189-0.742l0.006-0.008 0.028-0.038c0.146-0.2 0.282-0.407 0.408-0.62 0.107-0.171 0.202-0.349 0.282-0.534 0.052-0.12 0.068-0.184 0.074-0.206-0.021-0.179-0.083-0.352-0.18-0.504-0.186-0.31-0.392-0.608-0.618-0.89l-0.020-0.024c-0.27-0.345-0.517-0.708-0.74-1.086-0.272-0.451-0.424-0.964-0.44-1.49 0-0.376 0.13-0.736 0.238-0.988 0.118-0.276 0.268-0.548 0.404-0.776 0.159-0.261 0.328-0.516 0.506-0.764l0.050-0.070c0.159-0.212 0.396-0.353 0.658-0.391s0.529 0.030 0.742 0.189c0.212 0.159 0.353 0.396 0.391 0.658s-0.030 0.529-0.189 0.742zM20.8 1.599l-0.006 0.008-0.028 0.038c-0.146 0.2-0.282 0.407-0.408 0.62-0.107 0.171-0.202 0.349-0.282 0.534-0.052 0.12-0.068 0.184-0.074 0.206v0.008c0.023 0.177 0.085 0.346 0.182 0.496 0.15 0.266 0.356 0.544 0.616 0.89l0.020 0.024c0.236 0.316 0.52 0.694 0.74 1.086 0.224 0.4 0.44 0.91 0.44 1.49 0 0.376-0.13 0.736-0.238 0.988-0.116 0.268-0.251 0.527-0.404 0.776-0.156 0.262-0.324 0.517-0.504 0.764l-0.038 0.050-0.010 0.016-0.004 0.004c-0.159 0.212-0.396 0.353-0.658 0.391s-0.529-0.030-0.742-0.189c-0.212-0.159-0.353-0.396-0.391-0.658s0.030-0.529 0.189-0.742l0.006-0.008 0.028-0.038c0.145-0.2 0.282-0.407 0.408-0.62 0.107-0.171 0.201-0.349 0.282-0.534 0.052-0.12 0.068-0.184 0.074-0.206-0.021-0.179-0.083-0.352-0.18-0.504-0.186-0.31-0.392-0.608-0.618-0.89l-0.020-0.024c-0.27-0.345-0.517-0.708-0.74-1.086-0.272-0.451-0.424-0.964-0.44-1.49 0-0.376 0.13-0.736 0.238-0.988 0.118-0.276 0.268-0.548 0.404-0.776 0.159-0.261 0.328-0.516 0.506-0.764l0.050-0.070c0.159-0.212 0.396-0.353 0.658-0.391s0.529 0.030 0.742 0.189c0.212 0.159 0.353 0.396 0.391 0.658s-0.030 0.529-0.189 0.742z">
            </path>
        </symbol>
        <symbol id="icon-engine" viewBox="0 0 32 32">
            <path
                d="M6 5c0-0.265 0.105-0.52 0.293-0.707s0.442-0.293 0.707-0.293h10c0.265 0 0.52 0.105 0.707 0.293s0.293 0.442 0.293 0.707v10c0 0.265-0.105 0.52-0.293 0.707s-0.442 0.293-0.707 0.293h-10c-0.265 0-0.52-0.105-0.707-0.293s-0.293-0.442-0.293-0.707v-10z">
            </path>
            <path
                d="M2 4c0-1.061 0.421-2.078 1.172-2.828s1.768-1.172 2.828-1.172h12c1.061 0 2.078 0.421 2.828 1.172s1.172 1.768 1.172 2.828v16c1.061 0 2.078 0.421 2.828 1.172s1.172 1.768 1.172 2.828v1c0 0.265 0.105 0.52 0.293 0.707s0.442 0.293 0.707 0.293 0.52-0.105 0.707-0.293c0.188-0.188 0.293-0.442 0.293-0.707v-9h-1c-0.265 0-0.52-0.105-0.707-0.293s-0.293-0.442-0.293-0.707v-6.25c0-0.265 0.105-0.52 0.293-0.707s0.442-0.293 0.707-0.293h2.99c-0.022-0.952-0.106-1.788-0.402-2.444-0.158-0.381-0.435-0.702-0.788-0.916-0.368-0.22-0.928-0.39-1.8-0.39-0.265 0-0.52-0.105-0.707-0.293s-0.293-0.442-0.293-0.707 0.105-0.52 0.293-0.707c0.188-0.188 0.442-0.293 0.707-0.293 1.128-0.003 2.069 0.221 2.824 0.672 0.766 0.456 1.268 1.102 1.588 1.814 0.59 1.31 0.588 2.93 0.588 4.162v6.35c0 0.132-0.025 0.262-0.076 0.383s-0.124 0.232-0.217 0.325c-0.093 0.093-0.203 0.167-0.325 0.217s-0.252 0.076-0.383 0.076h-1v9c0 0.796-0.316 1.559-0.879 2.121s-1.326 0.879-2.121 0.879-1.559-0.316-2.121-0.879c-0.563-0.563-0.879-1.326-0.879-2.121v-1c0-0.53-0.211-1.039-0.586-1.414s-0.884-0.586-1.414-0.586v8h1c0.265 0 0.52 0.105 0.707 0.293s0.293 0.442 0.293 0.707-0.105 0.52-0.293 0.707c-0.188 0.188-0.442 0.293-0.707 0.293h-22c-0.265 0-0.52-0.105-0.707-0.293s-0.293-0.442-0.293-0.707 0.105-0.52 0.293-0.707c0.188-0.188 0.442-0.293 0.707-0.293h1v-26zM20 4c0-0.53-0.211-1.039-0.586-1.414s-0.884-0.586-1.414-0.586h-12c-0.53 0-1.039 0.211-1.414 0.586s-0.586 0.884-0.586 1.414v26h16v-26z">
            </path>
        </symbol>
        <symbol id="icon-ac" viewBox="0 0 36 32">
            <path
                d="M27.778 2.222c-1.473 0-2.887 0.585-3.928 1.627s-1.627 2.455-1.627 3.928c0 0.295-0.117 0.577-0.326 0.786s-0.491 0.325-0.786 0.325-0.577-0.117-0.786-0.325c-0.209-0.208-0.326-0.491-0.326-0.786 0-1.538 0.456-3.042 1.311-4.321s2.069-2.276 3.491-2.865c1.421-0.589 2.985-0.743 4.494-0.443s2.895 1.041 3.982 2.129c1.088 1.088 1.828 2.474 2.129 3.982s0.146 3.073-0.443 4.494c-0.589 1.421-1.586 2.636-2.865 3.491s-2.783 1.311-4.321 1.311h-26.667c-0.295 0-0.577-0.117-0.786-0.325s-0.325-0.491-0.325-0.786c0-0.295 0.117-0.577 0.325-0.786s0.491-0.325 0.786-0.325h26.667c1.473 0 2.887-0.585 3.928-1.627s1.627-2.455 1.627-3.928-0.585-2.886-1.627-3.928c-1.042-1.042-2.455-1.627-3.928-1.627zM12.222 4.444c-0.589 0-1.155 0.234-1.571 0.651s-0.651 0.982-0.651 1.571c0 0.295-0.117 0.577-0.325 0.786s-0.491 0.325-0.786 0.325c-0.295 0-0.577-0.117-0.786-0.325s-0.325-0.491-0.325-0.786c0-0.879 0.261-1.738 0.749-2.469s1.182-1.301 1.995-1.637c0.812-0.336 1.706-0.424 2.568-0.253s1.654 0.595 2.276 1.216c0.622 0.622 1.045 1.414 1.216 2.276s0.084 1.756-0.253 2.568c-0.336 0.812-0.906 1.506-1.637 1.995s-1.59 0.749-2.469 0.749h-11.111c-0.295 0-0.577-0.117-0.786-0.325s-0.325-0.491-0.325-0.786c0-0.295 0.117-0.577 0.325-0.786s0.491-0.325 0.786-0.325h11.111c0.589 0 1.155-0.234 1.571-0.651s0.651-0.982 0.651-1.571c0-0.589-0.234-1.155-0.651-1.571s-0.982-0.651-1.571-0.651zM0 18.889c0-0.295 0.117-0.577 0.325-0.786s0.491-0.326 0.786-0.326h22.316c1.319 0 2.607 0.391 3.704 1.124s1.951 1.774 2.455 2.992c0.505 1.218 0.637 2.559 0.379 3.852s-0.892 2.481-1.824 3.413c-0.932 0.932-2.12 1.567-3.413 1.824s-2.634 0.125-3.852-0.379c-1.218-0.505-2.259-1.359-2.992-2.455s-1.124-2.385-1.124-3.704c0-0.295 0.117-0.577 0.325-0.786s0.491-0.326 0.786-0.326c0.295 0 0.577 0.117 0.786 0.326s0.326 0.491 0.326 0.786c0 0.879 0.261 1.738 0.749 2.469s1.183 1.301 1.995 1.637 1.706 0.424 2.568 0.253c0.862-0.172 1.654-0.595 2.276-1.216s1.045-1.413 1.216-2.276c0.171-0.862 0.083-1.756-0.253-2.568s-0.906-1.506-1.637-1.995c-0.731-0.488-1.59-0.749-2.469-0.749h-22.316c-0.295 0-0.577-0.117-0.786-0.326s-0.325-0.491-0.325-0.786z">
            </path>
        </symbol>
        <symbol id="icon-transmission" viewBox="0 0 43 32">
            <path
                d="M16 4c0-1.061 0.421-2.078 1.172-2.828s1.768-1.172 2.828-1.172h2.667c1.061 0 2.078 0.421 2.828 1.172s1.172 1.768 1.172 2.828v2.667c0 1.061-0.421 2.078-1.172 2.828s-1.767 1.172-2.828 1.172v2.667h14.667c0.354 0 0.693 0.14 0.943 0.391s0.391 0.589 0.391 0.943v2.667c0 0.354-0.14 0.693-0.391 0.943s-0.589 0.391-0.943 0.391-0.693-0.14-0.943-0.391c-0.25-0.25-0.391-0.589-0.391-0.943v-1.333h-13.333v1.333c0 0.354-0.14 0.693-0.391 0.943s-0.589 0.391-0.943 0.391c-0.354 0-0.693-0.14-0.943-0.391s-0.391-0.589-0.391-0.943v-1.333h-13.333v1.333c0 0.354-0.14 0.693-0.391 0.943s-0.589 0.391-0.943 0.391c-0.354 0-0.693-0.14-0.943-0.391s-0.391-0.589-0.391-0.943v-2.667c0-0.354 0.14-0.693 0.391-0.943s0.589-0.391 0.943-0.391h14.667v-2.667c-1.061 0-2.078-0.421-2.828-1.172s-1.172-1.768-1.172-2.828v-2.667zM22.667 8c0.354 0 0.693-0.14 0.943-0.391s0.391-0.589 0.391-0.943v-2.667c0-0.354-0.14-0.693-0.391-0.943s-0.589-0.391-0.943-0.391h-2.667c-0.354 0-0.693 0.14-0.943 0.391s-0.391 0.589-0.391 0.943v2.667c0 0.354 0.14 0.693 0.391 0.943s0.589 0.391 0.943 0.391h2.667zM0 25.333c0-1.061 0.421-2.078 1.172-2.828s1.768-1.172 2.828-1.172h2.667c1.061 0 2.078 0.421 2.828 1.172s1.172 1.767 1.172 2.828v2.667c0 1.061-0.421 2.078-1.172 2.828s-1.768 1.172-2.828 1.172h-2.667c-1.061 0-2.078-0.421-2.828-1.172s-1.172-1.767-1.172-2.828v-2.667zM4 24c-0.354 0-0.693 0.14-0.943 0.391s-0.391 0.589-0.391 0.943v2.667c0 0.354 0.14 0.693 0.391 0.943s0.589 0.391 0.943 0.391h2.667c0.354 0 0.693-0.14 0.943-0.391s0.391-0.589 0.391-0.943v-2.667c0-0.354-0.14-0.693-0.391-0.943s-0.589-0.391-0.943-0.391h-2.667zM16 25.333c0-1.061 0.421-2.078 1.172-2.828s1.768-1.172 2.828-1.172h2.667c1.061 0 2.078 0.421 2.828 1.172s1.172 1.767 1.172 2.828v2.667c0 1.061-0.421 2.078-1.172 2.828s-1.767 1.172-2.828 1.172h-2.667c-1.061 0-2.078-0.421-2.828-1.172s-1.172-1.767-1.172-2.828v-2.667zM20 24c-0.354 0-0.693 0.14-0.943 0.391s-0.391 0.589-0.391 0.943v2.667c0 0.354 0.14 0.693 0.391 0.943s0.589 0.391 0.943 0.391h2.667c0.354 0 0.693-0.14 0.943-0.391s0.391-0.589 0.391-0.943v-2.667c0-0.354-0.14-0.693-0.391-0.943s-0.589-0.391-0.943-0.391h-2.667zM32 25.333c0-1.061 0.421-2.078 1.172-2.828s1.767-1.172 2.828-1.172h2.667c1.061 0 2.078 0.421 2.828 1.172s1.172 1.767 1.172 2.828v2.667c0 1.061-0.421 2.078-1.172 2.828s-1.767 1.172-2.828 1.172h-2.667c-1.061 0-2.078-0.421-2.828-1.172s-1.172-1.767-1.172-2.828v-2.667zM36 24c-0.354 0-0.693 0.14-0.943 0.391s-0.391 0.589-0.391 0.943v2.667c0 0.354 0.14 0.693 0.391 0.943s0.589 0.391 0.943 0.391h2.667c0.354 0 0.693-0.14 0.943-0.391s0.391-0.589 0.391-0.943v-2.667c0-0.354-0.14-0.693-0.391-0.943s-0.589-0.391-0.943-0.391h-2.667z">
            </path>
        </symbol>
        <symbol id="icon-map" viewBox="0 0 32 32">
            <path
                d="M31.634 0.226c0.115 0.094 0.207 0.212 0.27 0.346s0.096 0.28 0.096 0.428v28c-0 0.231-0.080 0.455-0.227 0.634s-0.351 0.301-0.577 0.346l-10 2c-0.129 0.026-0.263 0.026-0.392 0l-9.804-1.96-9.804 1.96c-0.145 0.029-0.295 0.025-0.438-0.010s-0.277-0.103-0.392-0.197c-0.114-0.094-0.207-0.212-0.27-0.345s-0.096-0.28-0.096-0.428v-28c0-0.231 0.080-0.455 0.227-0.634s0.351-0.301 0.577-0.346l10-2c0.129-0.026 0.263-0.026 0.392 0l9.804 1.96 9.804-1.96c0.145-0.029 0.295-0.026 0.438 0.010s0.277 0.103 0.392 0.196zM20 3.82l-8-1.6v25.96l8 1.6v-25.96zM22 29.78l8-1.6v-25.96l-8 1.6v25.96zM10 28.18v-25.96l-8 1.6v25.96l8-1.6z">
            </path>
        </symbol>
        <symbol id="icon-heart" viewBox="0 0 37 32">
            <path
                d="M18.286 11.968l-2.043-4.089c-0.507-1.013-1.387-2.469-2.633-3.646-1.225-1.159-2.693-1.947-4.466-1.947-3.831 0-6.857 3.031-6.857 6.674 0 2.768 1.266 4.722 4.27 7.703 0.77 0.763 1.648 1.589 2.619 2.498 2.533 2.377 5.682 5.335 9.111 9.289 3.429-3.954 6.578-6.912 9.111-9.289 0.971-0.91 1.851-1.737 2.619-2.498 3.003-2.981 4.27-4.935 4.27-7.703 0-3.643-3.026-6.674-6.857-6.674-1.776 0-3.241 0.789-4.466 1.947-1.246 1.177-2.126 2.633-2.633 3.646l-2.043 4.089zM19.182 30.921c-0.11 0.13-0.247 0.235-0.402 0.307s-0.323 0.109-0.494 0.109-0.339-0.037-0.494-0.109c-0.155-0.072-0.292-0.177-0.402-0.307-3.659-4.347-6.971-7.456-9.698-10.014-4.72-4.432-7.691-7.218-7.691-11.947 0-4.949 4.091-8.96 9.143-8.96 3.657 0 6.215 2.4 7.781 4.59 0.594 0.834 1.047 1.637 1.362 2.267 0.396-0.789 0.851-1.547 1.362-2.267 1.566-2.192 4.123-4.59 7.781-4.59 5.051 0 9.143 4.011 9.143 8.96 0 4.729-2.971 7.515-7.691 11.947-2.727 2.56-6.039 5.671-9.698 10.014z">
            </path>
        </symbol>
        <symbol id="icon-star" viewBox="0 0 34 32">
            <path
                d="M15.195 0.61c0.429-0.813 1.593-0.813 2.022 0l4.316 8.18c0.165 0.313 0.467 0.532 0.816 0.593l9.114 1.577c0.905 0.157 1.265 1.264 0.625 1.923l-6.446 6.633c-0.247 0.254-0.362 0.608-0.312 0.959l1.317 9.155c0.131 0.91-0.811 1.594-1.635 1.188l-8.3-4.081c-0.318-0.156-0.691-0.156-1.009 0l-8.3 4.081c-0.825 0.405-1.766-0.279-1.636-1.188l1.317-9.155c0.050-0.351-0.065-0.705-0.312-0.959l-6.446-6.633c-0.64-0.659-0.281-1.766 0.625-1.923l9.114-1.577c0.349-0.060 0.651-0.279 0.816-0.593l4.316-8.18z">
            </path>
        </symbol>
    </defs>
</svg>